<svg xmlns="http://www.w3.org/2000/svg" version="1.1" xmlns:xlink="http://www.w3.org/1999/xlink" xmlns:svgjs="http://svgjs.dev/svgjs" width="1000" height="869" viewBox="0 0 1000 869"><g transform="matrix(1,0,0,1,0.5271531166829959,0.35182186234817436)"><svg viewBox="0 0 284 247" data-background-color="#ffffff" preserveAspectRatio="xMidYMid meet" height="869" width="1000" xmlns="http://www.w3.org/2000/svg" xmlns:xlink="http://www.w3.org/1999/xlink"><g id="tight-bounds" transform="matrix(1,0,0,1,-0.14971147998076617,-0.09999999999999432)"><svg viewBox="0 0 284.2994229651188 247.2" height="247.2" width="284.2994229651188"><g><svg viewBox="0 0 395.52000000000004 343.9069379046748" height="247.2" width="284.2994229651188"><g transform="matrix(1,0,0,1,0,255.73943942628165)"><svg viewBox="0 0 395.52000000000004 88.16749847839318" height="88.16749847839318" width="395.52000000000004"><g id="textblocktransform"><svg viewBox="0 0 395.52000000000004 88.16749847839318" height="88.16749847839318" width="395.52000000000004" id="textblock"><g><svg viewBox="0 0 395.52000000000004 88.16749847839318" height="88.16749847839318" width="395.52000000000004"><g transform="matrix(1,0,0,1,0,0)"><svg width="395.52000000000004" viewBox="0.20000000298023224 -36.22999954223633 164.29000854492188 36.630001068115234" height="88.16749847839318" data-palette-color="#2257bf"><path d="M14.8 0L0.2-35.83 4.08-35.83Q4.73-35.83 5.13-35.5 5.53-35.18 5.73-34.68L5.73-34.68 15.85-9.4Q16.2-8.55 16.49-7.55 16.78-6.55 17.05-5.48L17.05-5.48Q17.28-6.55 17.54-7.55 17.8-8.55 18.15-9.4L18.15-9.4 28.23-34.68Q28.4-35.1 28.83-35.46 29.25-35.83 29.88-35.83L29.88-35.83 33.77-35.83 19.18 0 14.8 0ZM44.1-35.83L44.1 0 39.25 0 39.25-35.83 44.1-35.83ZM73.22-32.52L72.05-30.23Q71.82-29.85 71.57-29.66 71.32-29.48 70.92-29.48L70.92-29.48Q70.5-29.48 69.93-29.9 69.37-30.33 68.51-30.84 67.65-31.35 66.43-31.78 65.22-32.2 63.5-32.2L63.5-32.2Q61.87-32.2 60.62-31.76 59.37-31.33 58.53-30.58 57.7-29.83 57.27-28.81 56.85-27.8 56.85-26.63L56.85-26.63Q56.85-25.13 57.58-24.14 58.32-23.15 59.53-22.45 60.75-21.75 62.28-21.24 63.82-20.73 65.43-20.18 67.05-19.63 68.58-18.94 70.12-18.25 71.33-17.2 72.55-16.15 73.28-14.63 74.02-13.1 74.02-10.88L74.02-10.88Q74.02-8.53 73.22-6.46 72.42-4.4 70.88-2.88 69.34-1.35 67.11-0.48 64.87 0.4 62.02 0.4L62.02 0.4Q58.55 0.4 55.68-0.86 52.82-2.13 50.8-4.28L50.8-4.28 52.2-6.58Q52.4-6.85 52.68-7.04 52.97-7.23 53.32-7.23L53.32-7.23Q53.85-7.23 54.52-6.66 55.2-6.1 56.21-5.43 57.22-4.75 58.66-4.19 60.1-3.63 62.17-3.63L62.17-3.63Q63.9-3.63 65.25-4.1 66.59-4.58 67.53-5.44 68.47-6.3 68.97-7.5 69.47-8.7 69.47-10.18L69.47-10.18Q69.47-11.8 68.73-12.84 68-13.88 66.8-14.58 65.59-15.28 64.06-15.76 62.52-16.25 60.91-16.76 59.3-17.28 57.76-17.95 56.22-18.63 55.02-19.7 53.82-20.78 53.08-22.39 52.35-24 52.35-26.38L52.35-26.38Q52.35-28.28 53.08-30.05 53.82-31.83 55.22-33.2 56.62-34.58 58.68-35.4 60.75-36.23 63.42-36.23L63.42-36.23Q66.42-36.23 68.9-35.27 71.37-34.33 73.22-32.52L73.22-32.52ZM85.94-35.83L85.94 0 81.09 0 81.09-35.83 85.94-35.83ZM128.81-17.9L128.81-17.9Q128.81-13.88 127.54-10.51 126.27-7.15 123.94-4.73 121.61-2.3 118.35-0.96 115.09 0.38 111.14 0.38L111.14 0.38Q107.19 0.38 103.94-0.96 100.69-2.3 98.36-4.73 96.04-7.15 94.77-10.51 93.49-13.88 93.49-17.9L93.49-17.9Q93.49-21.93 94.77-25.29 96.04-28.65 98.36-31.09 100.69-33.52 103.94-34.88 107.19-36.23 111.14-36.23L111.14-36.23Q115.09-36.23 118.35-34.88 121.61-33.52 123.94-31.09 126.27-28.65 127.54-25.29 128.81-21.93 128.81-17.9ZM123.84-17.9L123.84-17.9Q123.84-21.2 122.94-23.83 122.04-26.45 120.39-28.26 118.74-30.08 116.39-31.05 114.04-32.02 111.14-32.02L111.14-32.02Q108.27-32.02 105.91-31.05 103.56-30.08 101.9-28.26 100.24-26.45 99.34-23.83 98.44-21.2 98.44-17.9L98.44-17.9Q98.44-14.6 99.34-11.99 100.24-9.38 101.9-7.56 103.56-5.75 105.91-4.79 108.27-3.83 111.14-3.83L111.14-3.83Q114.04-3.83 116.39-4.79 118.74-5.75 120.39-7.56 122.04-9.38 122.94-11.99 123.84-14.6 123.84-17.9ZM137.94-35.83L137.94-35.83Q138.59-35.83 138.9-35.66 139.21-35.5 139.61-35L139.61-35 160.36-8Q160.29-8.65 160.26-9.26 160.24-9.88 160.24-10.45L160.24-10.45 160.24-35.83 164.49-35.83 164.49 0 162.04 0Q161.46 0 161.08-0.2 160.69-0.4 160.31-0.88L160.31-0.88 139.59-27.85Q139.64-27.23 139.66-26.63 139.69-26.03 139.69-25.53L139.69-25.53 139.69 0 135.44 0 135.44-35.83 137.94-35.83Z" opacity="1" transform="matrix(1,0,0,1,0,0)" fill="#2257bf" class="undefined-text-0" data-fill-palette-color="primary" id="text-0"></path></svg></g></svg></g></svg></g></svg></g><g transform="matrix(1,0,0,1,90.70451065764435,0)"><svg viewBox="0 0 214.11097868471134 214.11097868471134" height="214.11097868471134" width="214.11097868471134"><g><svg></svg></g><g id="icon-0"><svg viewBox="0 0 214.11097868471134 214.11097868471134" height="214.11097868471134" width="214.11097868471134"><g><path d="M0 107.055c0-59.125 47.93-107.055 107.055-107.055 59.125 0 107.055 47.93 107.056 107.055 0 59.125-47.93 107.055-107.056 107.056-59.125 0-107.055-47.93-107.055-107.056zM107.055 206.16c54.734 0 99.104-44.371 99.105-99.105 0-54.734-44.371-99.104-99.105-99.104-54.734 0-99.104 44.371-99.104 99.104 0 54.734 44.371 99.104 99.104 99.105z" data-fill-palette-color="accent" fill="#2257bf" stroke="transparent"></path><ellipse rx="105.98493444893211" ry="105.98493444893211" cx="107.05548934235567" cy="107.05548934235567" fill="#2257bf" stroke="transparent" stroke-width="0" fill-opacity="1" data-fill-palette-color="accent"></ellipse></g><g transform="matrix(1,0,0,1,45.61979569607107,45.6200119488823)"><svg viewBox="0 0 122.8713872925692 122.87095478694674" height="122.87095478694674" width="122.8713872925692"><g><svg xmlns="http://www.w3.org/2000/svg" xmlns:xlink="http://www.w3.org/1999/xlink" version="1.1" x="0" y="0" viewBox="7.734947204589844 7.735245704650879 84.53054809570312 84.5302505493164" enable-background="new 0 0 100 100" xml:space="preserve" height="122.87095478694674" width="122.8713872925692" class="icon-s-0" data-fill-palette-color="quaternary" id="s-0"><g fill="#ffffff" data-fill-palette-color="quaternary"><g fill="#ffffff" data-fill-palette-color="quaternary"><g fill="#ffffff" data-fill-palette-color="quaternary"><path d="M28.368 14.767C42.162 16.327 48.04 25.762 49.69 30.695c1.07 3.198 1.472 5.094 1.472 9.275 0 0.817 0.044 2.076-1.054 2.216-0.77 0.099-1.209-0.509-1.273-1.182-0.289-3.026-1.159-6.569-4.008-9.85-2.253-2.594-7.472-7.802-16.652-7.021-2.669 0.228-5.052-1.868-5.129-4.564C22.964 16.703 25.531 14.446 28.368 14.767z" fill="#ffffff" data-fill-palette-color="quaternary"></path><path d="M71.633 85.232c-13.794-1.561-19.671-10.995-21.322-15.929-1.07-3.198-1.472-5.094-1.472-9.275 0-0.817-0.044-2.076 1.054-2.216 0.77-0.099 1.209 0.509 1.273 1.182 0.289 3.026 1.159 6.569 4.008 9.85 2.253 2.594 7.472 7.802 16.652 7.021 2.669-0.228 5.052 1.868 5.129 4.564C77.037 83.296 74.47 85.553 71.633 85.232z" fill="#ffffff" data-fill-palette-color="quaternary"></path></g><g fill="#ffffff" data-fill-palette-color="quaternary"><path d="M14.768 71.633c1.56-13.794 10.995-19.672 15.928-21.322 3.198-1.07 5.094-1.472 9.276-1.472 0.817 0 2.076-0.045 2.216 1.054 0.098 0.77-0.509 1.209-1.182 1.273-3.026 0.288-6.569 1.159-9.849 4.008-2.594 2.254-7.802 7.473-7.021 16.652 0.228 2.669-1.868 5.052-4.564 5.129C16.704 77.036 14.447 74.47 14.768 71.633z" fill="#ffffff" data-fill-palette-color="quaternary"></path><path d="M85.233 28.367c-1.56 13.794-10.995 19.672-15.928 21.322-3.198 1.07-5.094 1.472-9.276 1.472-0.817 0-2.076 0.045-2.216-1.054-0.098-0.77 0.509-1.209 1.182-1.273 3.026-0.288 6.569-1.159 9.849-4.008 2.594-2.254 7.802-7.473 7.021-16.652-0.228-2.669 1.868-5.052 4.564-5.129C83.297 22.964 85.554 25.53 85.233 28.367z" fill="#ffffff" data-fill-palette-color="quaternary"></path></g></g><g fill="#ffffff" data-fill-palette-color="quaternary"><g fill="#ffffff" data-fill-palette-color="quaternary"><path d="M13.65 30.304c12.726-5.546 22.533-0.314 26.43 3.133 2.526 2.234 3.821 3.676 5.912 7.297 0.409 0.708 1.077 1.775 0.195 2.446-0.617 0.47-1.302 0.164-1.693-0.387-1.763-2.477-4.289-5.109-8.396-6.525-3.249-1.12-10.373-3.021-17.931 2.246-2.198 1.531-5.309 0.907-6.724-1.389C9.938 34.682 11.033 31.444 13.65 30.304z" fill="#ffffff" data-fill-palette-color="quaternary"></path><path d="M86.351 69.695c-12.726 5.546-22.533 0.314-26.43-3.133-2.526-2.234-3.821-3.676-5.912-7.297-0.409-0.708-1.077-1.775-0.196-2.446 0.618-0.47 1.302-0.164 1.694 0.387 1.763 2.477 4.289 5.109 8.396 6.525 3.249 1.12 10.373 3.021 17.931-2.245 2.198-1.532 5.309-0.908 6.724 1.388C90.063 65.317 88.968 68.555 86.351 69.695z" fill="#ffffff" data-fill-palette-color="quaternary"></path></g><g fill="#ffffff" data-fill-palette-color="quaternary"><path d="M30.304 86.351c-5.546-12.726-0.314-22.533 3.133-26.43 2.235-2.525 3.676-3.821 7.298-5.912 0.708-0.409 1.775-1.076 2.445-0.195 0.47 0.617 0.164 1.302-0.387 1.693-2.477 1.764-5.109 4.289-6.525 8.396-1.12 3.248-3.021 10.372 2.246 17.931 1.531 2.198 0.908 5.31-1.389 6.725C34.683 90.062 31.445 88.968 30.304 86.351z" fill="#ffffff" data-fill-palette-color="quaternary"></path><path d="M69.696 13.649c5.546 12.726 0.314 22.533-3.133 26.43-2.234 2.526-3.675 3.821-7.297 5.913-0.708 0.408-1.775 1.076-2.446 0.195-0.47-0.618-0.163-1.303 0.388-1.694 2.477-1.763 5.109-4.288 6.525-8.396 1.12-3.249 3.021-10.372-2.246-17.932-1.532-2.198-0.908-5.309 1.388-6.724C65.318 9.938 68.556 11.032 69.696 13.649z" fill="#ffffff" data-fill-palette-color="quaternary"></path></g></g><g fill="#ffffff" data-fill-palette-color="quaternary"><g fill="#ffffff" data-fill-palette-color="quaternary"><path d="M8.671 51.118c8.248-11.166 19.357-11.539 24.456-10.502 3.305 0.672 5.147 1.272 8.769 3.363 0.708 0.408 1.82 0.999 1.392 2.021-0.299 0.716-1.045 0.793-1.66 0.512-2.765-1.263-6.269-2.28-10.533-1.453-3.374 0.654-10.494 2.57-14.406 10.911-1.138 2.425-4.144 3.44-6.518 2.159C7.646 56.766 6.976 53.414 8.671 51.118z" fill="#ffffff" data-fill-palette-color="quaternary"></path><path d="M91.329 48.882C83.081 60.047 71.971 60.42 66.874 59.383c-3.305-0.672-5.147-1.272-8.769-3.363-0.708-0.408-1.82-0.999-1.393-2.021 0.3-0.716 1.046-0.793 1.66-0.512 2.766 1.264 6.269 2.28 10.534 1.453 3.373-0.654 10.493-2.569 14.406-10.91 1.138-2.426 4.144-3.441 6.517-2.16C92.354 43.233 93.025 46.585 91.329 48.882z" fill="#ffffff" data-fill-palette-color="quaternary"></path></g><g fill="#ffffff" data-fill-palette-color="quaternary"><path d="M51.119 91.329C39.953 83.081 39.58 71.972 40.617 66.874c0.673-3.305 1.272-5.147 3.364-8.77 0.409-0.708 1-1.819 2.02-1.392 0.716 0.3 0.793 1.045 0.512 1.66-1.263 2.765-2.28 6.269-1.453 10.533 0.654 3.374 2.57 10.493 10.911 14.406 2.425 1.138 3.44 4.144 2.159 6.518C56.766 92.354 53.415 93.025 51.119 91.329z" fill="#ffffff" data-fill-palette-color="quaternary"></path><path d="M48.882 8.672c11.166 8.247 11.538 19.356 10.501 24.455-0.672 3.305-1.271 5.147-3.362 8.77-0.409 0.707-1 1.819-2.021 1.392-0.716-0.3-0.792-1.046-0.511-1.661 1.263-2.765 2.28-6.268 1.453-10.533-0.655-3.373-2.57-10.492-10.911-14.406-2.426-1.137-3.44-4.144-2.159-6.517C43.234 7.646 46.585 6.976 48.882 8.672z" fill="#ffffff" data-fill-palette-color="quaternary"></path></g></g></g></svg></g></svg></g></svg></g></svg></g><g></g></svg></g><defs></defs></svg><rect width="284.2994229651188" height="247.2" fill="none" stroke="none" visibility="hidden"></rect></g></svg></g></svg>